<svg width="90" height="114" viewBox="0 0 90 114" fill="none" xmlns="http://www.w3.org/2000/svg">
<path d="M51 6C51 2.68629 48.3137 -1.44847e-07 45 0C41.6863 1.44847e-07 39 2.68629 39 6L51 6ZM40.7574 112.243C43.1005 114.586 46.8995 114.586 49.2426 112.243L87.4264 74.0589C89.7696 71.7157 89.7696 67.9167 87.4264 65.5736C85.0833 63.2304 81.2843 63.2304 78.9411 65.5736L45 99.5147L11.0589 65.5736C8.71573 63.2304 4.91674 63.2304 2.5736 65.5736C0.23045 67.9167 0.23045 71.7157 2.5736 74.0589L40.7574 112.243ZM39 6L39 108L51 108L51 6L39 6Z" fill="#37ECE1"/>
</svg>
